<?xml version="1.0" encoding="UTF-8" standalone="no" ?>
<!DOCTYPE svg PUBLIC "-//W3C//DTD SVG 1.1//EN" "http://www.w3.org/Graphics/SVG/1.1/DTD/svg11.dtd">
<svg xmlns="http://www.w3.org/2000/svg" xmlns:xlink="http://www.w3.org/1999/xlink" version="1.1" width="1280" height="1024" viewBox="0 0 1280 1024" xml:space="preserve">
<desc>Created with Fabric.js 4.4.0</desc>
<defs>
</defs>
<g transform="matrix(1 0 0 1 640 512)" id="background-logo"  >
<rect style="stroke: none; stroke-width: 0; stroke-dasharray: none; stroke-linecap: butt; stroke-dashoffset: 0; stroke-linejoin: miter; stroke-miterlimit: 4; fill: rgb(255,255,255); fill-opacity: 0; fill-rule: nonzero; opacity: 1;"  paint-order="stroke"  x="-640" y="-512" rx="0" ry="0" width="1280" height="1024" />
</g>
<g transform="matrix(1.9127524941154141 0 0 1.9127524941154146 640 375.3946942334777)" id="logo-logo"  >
<g style=""  paint-order="stroke"   >
		<g transform="matrix(0.26933371552430646 0 0 -0.26933371552430646 -0.06194675457032872 -44.77026619674339)"  >
<linearGradient id="SVGID_263075" gradientUnits="userSpaceOnUse" gradientTransform="matrix(1 0 0 1 8212.57 1154.1200000000001)"  x1="0" y1="0" x2="0" y2="641">
<stop offset="0%" style="stop-color:rgb(91,36,122);stop-opacity: 1"/>
<stop offset="100%" style="stop-color:rgb(27,206,223);stop-opacity: 1"/>
</linearGradient>
<path style="stroke: none; stroke-width: 1; stroke-dasharray: none; stroke-linecap: butt; stroke-dashoffset: 0; stroke-linejoin: miter; stroke-miterlimit: 4; fill: url(#SVGID_263075); fill-rule: nonzero; opacity: 1;"  paint-order="stroke"  transform=" translate(-8533.105, -1474.5600000000002)" d="M 8212.57 1282.16 L 8234.59 1260.14 C 8305.28 1189.45 8398.14 1154.1200000000001 8491 1154.1200000000001 C 8583.87 1154.1200000000001 8676.73 1189.45 8747.42 1260.14 C 8815.92 1328.64 8853.64 1419.71 8853.64 1516.5800000000002 C 8853.64 1613.4500000000003 8815.92 1704.5100000000002 8747.42 1773.0000000000002 L 8725.41 1795.0000000000002 L 8703.4 1773.0000000000002 C 8687.359999999999 1756.9600000000003 8673.16 1739.5700000000002 8660.59 1721.2700000000002 C 8637.27 1746.8700000000001 8606.32 1767.2600000000002 8579.05 1772.2900000000002 L 8565.109999999999 1774.8700000000001 L 8554.019999999999 1766.0500000000002 C 8527.96 1745.3200000000002 8507.71 1713.9300000000003 8496.97 1680.0600000000002 C 8447.39 1699.0800000000002 8391.01 1707.39 8334.05 1700.9 L 8309.5 1698.0700000000002 L 8306.68 1673.5200000000002 C 8300.130000000001 1616.5500000000002 8308.42 1560.1600000000003 8327.44 1510.5900000000001 C 8293.6 1499.8500000000001 8262.24 1479.6100000000001 8241.54 1453.5700000000002 L 8232.720000000001 1442.4800000000002 L 8235.29 1428.5400000000002 C 8240.320000000002 1401.2700000000002 8260.710000000001 1370.3100000000002 8286.320000000002 1346.9900000000002 C 8268.010000000002 1334.4100000000003 8250.630000000001 1320.2200000000003 8234.590000000002 1304.1800000000003 z M 8303.14 1282.18 C 8356.269999999999 1324.92 8421.849999999999 1348.14 8491 1348.14 C 8560.16 1348.14 8625.75 1324.92 8678.86 1282.18 C 8569.53 1194.4 8412.51 1194.38 8303.140000000001 1282.18 z M 8725.41 1704.45 C 8768.16 1651.3400000000001 8791.38 1585.74 8791.38 1516.58 C 8791.38 1447.4199999999998 8768.16 1381.82 8725.41 1328.6999999999998 C 8682.66 1381.8199999999997 8659.45 1447.4199999999998 8659.45 1516.58 C 8659.45 1585.74 8682.67 1651.32 8725.41 1704.4499999999998 z M 8580.97 1705.95 C 8596.84 1697.51 8616.869999999999 1680.29 8627.73 1662.02 C 8619.82 1643.98 8613.56 1625.29 8608.71 1606.12 C 8593.07 1623.26 8574.38 1638.55 8553.529999999999 1651.75 C 8558.39 1673.37 8569.07 1692.43 8580.97 1705.95 z M 8597.98 1494.45 L 8598.189999999999 1494.48 C 8600.429999999998 1457.08 8607.98 1420.69 8621.13 1386.46 C 8586.88 1399.5900000000001 8550.49 1407.15 8513.089999999998 1409.39 L 8513.13 1409.6000000000001 C 8437.48 1420.3300000000002 8363.46 1519.2200000000003 8366.72 1640.8400000000001 C 8488.75 1644.3200000000002 8587.24 1570.0700000000002 8597.98 1494.4500000000003 z M 8301.63 1426.6200000000001 C 8315.14 1438.5100000000002 8334.179999999998 1449.18 8355.769999999999 1454.0500000000002 C 8368.979999999998 1433.2000000000003 8384.279999999999 1414.5000000000002 8401.429999999998 1398.8600000000001 C 8382.269999999999 1394.0100000000002 8363.589999999998 1387.7500000000002 8345.559999999998 1379.8500000000001 C 8327.299999999997 1390.7 8310.059999999998 1410.7500000000002 8301.629999999997 1426.6200000000001" stroke-linecap="round" />
</g>
		<g transform="matrix(0.26933371552430646 0 0 -0.26933371552430646 0 5.55635455126648)"  >
<linearGradient id="SVGID_263076" gradientUnits="userSpaceOnUse" gradientTransform="matrix(1 0 0 1 8106.82 821.6679999999999)"  x1="0" y1="0" x2="0" y2="932">
<stop offset="0%" style="stop-color:rgb(91,36,122);stop-opacity: 1"/>
<stop offset="100%" style="stop-color:rgb(27,206,223);stop-opacity: 1"/>
</linearGradient>
<path style="stroke: none; stroke-width: 1; stroke-dasharray: none; stroke-linecap: butt; stroke-dashoffset: 0; stroke-linejoin: miter; stroke-miterlimit: 4; fill: url(#SVGID_263076); fill-rule: nonzero; opacity: 1;"  paint-order="stroke"  transform=" translate(-8533.335, -1287.704)" d="M 8843.01 1720.1 C 8878.78 1658.4299999999998 8897.59 1588.7199999999998 8897.59 1516.58 C 8897.59 1292.3899999999999 8715.2 1110.01 8491 1110.01 C 8358.78 1110.01 8235.07 1175.05 8159.29 1281.81 L 8106.82 1248.1799999999998 C 8185.91 1135.33 8311.289999999999 1062.54 8448.4 1049.9199999999998 L 8448.4 906.855 L 8318.949999999999 906.855 L 8318.949999999999 821.668 L 8663.06 821.668 L 8663.06 906.855 L 8533.609999999999 906.855 L 8533.609999999999 1049.75 C 8772.23 1071.36 8959.849999999999 1272.43 8959.849999999999 1516.58 C 8959.849999999999 1600.72 8937.669999999998 1682.02 8895.479999999998 1753.74 L 8843.009999999998 1720.1" stroke-linecap="round" />
</g>
</g>
</g>
<g transform="matrix(1.9211538461538462 0 0 1.9211538461538462 641.2804565429688 727.5563459587297)" id="text-logo-path"  >
<linearGradient id="SVGID_46_9_10_263070" gradientUnits="userSpaceOnUse" gradientTransform="matrix(1 0 0 1 2.2900000000000205 -20.76)"  x1="0" y1="0" x2="0" y2="34">
<stop offset="0%" style="stop-color:rgb(91,36,122);stop-opacity: 1"/>
<stop offset="100%" style="stop-color:rgb(27,206,223);stop-opacity: 1"/>
</linearGradient>
<path style="stroke: none; stroke-width: 0; stroke-dasharray: none; stroke-linecap: butt; stroke-dashoffset: 0; stroke-linejoin: miter; stroke-miterlimit: 4; fill: url(#SVGID_46_9_10_263070); fill-rule: nonzero; opacity: 1;"  paint-order="stroke"  transform=" translate(-298.54, 10.195)" d="M 11.31 0 L 2.29 0 L 2.29 -20.38 L 11.31 -20.41 Q 11.35 -20.41 11.4 -20.41 L 11.4 -20.41 Q 13.81 -20.42 15.82 -19.66 L 15.82 -19.66 Q 17.86 -18.9 19.22 -17.53 Q 20.58 -16.17 21.33 -14.3 Q 22.08 -12.42 22.08 -10.22 L 22.08 -10.22 Q 22.08 -7.28 20.72 -4.95 Q 19.37 -2.62 16.9 -1.31 Q 14.44 0 11.31 0 L 11.31 0 Z M 7.21 -15.83 L 7.21 -4.56 L 11.31 -4.56 Q 13.89 -4.56 15.49 -6.12 Q 17.09 -7.68 17.09 -10.22 L 17.09 -10.22 Q 17.09 -12.92 15.53 -14.38 Q 13.97 -15.83 11.31 -15.83 L 11.31 -15.83 L 7.21 -15.83 Z M 30.45 0 L 25.53 0 L 25.53 -20.41 L 30.45 -20.41 L 30.45 0 Z M 40.65 0 L 33.87 -20.41 L 39.11 -20.41 L 43.34 -7.16 L 47.99 -20.41 L 53.36 -20.41 L 57.51 -7.24 L 62.24 -20.41 L 67.53 -20.41 L 59.87 0 L 54.83 0 L 50.55 -13.29 L 45.75 0 L 40.65 0 Z M 69.23 0 L 64.01 0 L 72.74 -20.41 L 78.22 -20.41 L 86.98 0 L 81.74 0 L 80.42 -3.18 L 70.58 -3.18 L 69.23 0 Z M 75.53 -14.82 L 72.29 -7.21 L 78.71 -7.21 L 75.53 -14.82 Z M 94.97 0 L 90.01 0 L 90.01 -20.41 L 94.97 -20.41 L 105.29 -7.95 L 105.29 -20.41 L 110.24 -20.41 L 110.24 0 L 105.29 0 L 94.97 -12.48 L 94.97 0 Z M 137.26 0 L 121.63 0 L 121.63 -20.41 L 137.26 -20.41 L 137.26 -15.83 L 126.55 -15.83 L 126.55 -12.33 L 135.48 -12.33 L 135.48 -8.07 L 126.55 -8.07 L 126.55 -4.56 L 137.26 -4.56 L 137.26 0 Z M 145.88 0 L 140.93 0 L 140.93 -20.41 L 145.88 -20.41 L 156.21 -7.95 L 156.21 -20.41 L 161.16 -20.41 L 161.16 0 L 156.21 0 L 145.88 -12.48 L 145.88 0 Z M 171.46 -15.83 L 164.24 -15.83 L 164.24 -20.41 L 183.68 -20.41 L 183.68 -15.83 L 176.44 -15.83 L 176.44 0 L 171.46 0 L 171.46 -15.83 Z M 202.66 0 L 187.03 0 L 187.03 -20.41 L 202.66 -20.41 L 202.66 -15.83 L 191.95 -15.83 L 191.95 -12.33 L 200.89 -12.33 L 200.89 -8.07 L 191.95 -8.07 L 191.95 -4.56 L 202.66 -4.56 L 202.66 0 Z M 211.57 0 L 206.65 0 L 206.65 -20.41 L 216.5 -20.41 Q 219.62 -20.41 221.7 -18.23 Q 223.77 -16.05 223.77 -12.74 L 223.77 -12.74 Q 223.77 -10.56 222.79 -8.8 Q 221.81 -7.05 220.14 -6.15 L 220.14 -6.15 L 224.34 0 L 218.22 0 L 215.16 -5.07 L 211.57 -5.07 L 211.57 0 Z M 211.57 -15.83 L 211.57 -9.62 L 215.79 -9.62 Q 217.05 -9.62 217.93 -10.54 Q 218.82 -11.46 218.82 -12.74 L 218.82 -12.74 Q 218.82 -14 217.94 -14.92 Q 217.06 -15.83 215.82 -15.83 L 215.82 -15.83 L 211.57 -15.83 Z M 232.63 0 L 227.68 0 L 227.68 -20.41 L 237.1 -20.41 Q 238.99 -20.41 240.5 -19.74 Q 242.01 -19.07 242.94 -17.95 Q 243.87 -16.83 244.36 -15.45 Q 244.85 -14.06 244.85 -12.54 L 244.85 -12.54 Q 244.85 -11.32 244.55 -10.17 Q 244.25 -9.02 243.61 -8.01 Q 242.97 -7 242.07 -6.25 Q 241.16 -5.49 239.88 -5.05 Q 238.59 -4.61 237.07 -4.61 L 237.07 -4.61 L 232.63 -4.61 L 232.63 0 Z M 232.63 -15.83 L 232.63 -9.16 L 236.54 -9.16 Q 238.07 -9.16 238.97 -10.03 Q 239.87 -10.91 239.87 -12.54 L 239.87 -12.54 Q 239.87 -14.14 238.97 -14.97 Q 238.08 -15.81 236.54 -15.83 L 236.54 -15.83 L 232.63 -15.83 Z M 253.55 0 L 248.63 0 L 248.63 -20.41 L 258.49 -20.41 Q 261.61 -20.41 263.68 -18.23 Q 265.75 -16.05 265.75 -12.74 L 265.75 -12.74 Q 265.75 -10.56 264.77 -8.8 Q 263.79 -7.05 262.12 -6.15 L 262.12 -6.15 L 266.32 0 L 260.2 0 L 257.14 -5.07 L 253.55 -5.07 L 253.55 0 Z M 253.55 -15.83 L 253.55 -9.62 L 257.77 -9.62 Q 259.03 -9.62 259.91 -10.54 Q 260.8 -11.46 260.8 -12.74 L 260.8 -12.74 Q 260.8 -14 259.92 -14.92 Q 259.04 -15.83 257.8 -15.83 L 257.8 -15.83 L 253.55 -15.83 Z M 274.75 0 L 269.82 0 L 269.82 -20.41 L 274.75 -20.41 L 274.75 0 Z M 278.36 -7.13 L 278.36 -7.13 L 283.26 -7.13 Q 283.27 -7 283.32 -6.78 Q 283.37 -6.56 283.66 -6.01 Q 283.95 -5.45 284.38 -5.02 Q 284.81 -4.6 285.69 -4.25 Q 286.57 -3.9 287.7 -3.9 L 287.7 -3.9 Q 289.22 -3.9 289.96 -4.43 Q 290.7 -4.97 290.7 -5.7 L 290.7 -5.7 Q 290.7 -6.08 290.49 -6.39 Q 290.27 -6.69 289.99 -6.9 Q 289.7 -7.1 289.16 -7.3 Q 288.62 -7.5 288.21 -7.61 Q 287.8 -7.72 287.09 -7.9 L 287.09 -7.9 Q 284.18 -8.58 282.8 -9.16 L 282.8 -9.16 Q 278.67 -10.87 278.67 -14.28 L 278.67 -14.28 Q 278.67 -16.11 279.78 -17.6 Q 280.88 -19.09 282.78 -19.92 Q 284.68 -20.76 286.98 -20.76 L 286.98 -20.76 Q 288.88 -20.76 290.47 -20.14 Q 292.06 -19.53 293.05 -18.54 Q 294.04 -17.55 294.57 -16.35 Q 295.11 -15.16 295.11 -13.95 L 295.11 -13.95 L 290.21 -13.95 Q 290.21 -14.81 289.3 -15.58 Q 288.38 -16.35 286.92 -16.35 L 286.92 -16.35 Q 285.7 -16.35 284.68 -15.84 Q 283.65 -15.34 283.65 -14.52 L 283.65 -14.52 Q 283.65 -13.83 284.54 -13.43 Q 285.42 -13.02 287.87 -12.39 L 287.87 -12.39 Q 290.65 -11.67 291.88 -11.12 L 291.88 -11.12 Q 295.22 -9.61 295.58 -6.72 L 295.58 -6.72 Q 295.62 -6.36 295.62 -5.98 L 295.62 -5.98 Q 295.62 -3.09 293.34 -1.36 Q 291.06 0.37 287.43 0.37 L 287.43 0.37 Q 285.59 0.37 284.04 -0.11 Q 282.5 -0.59 281.47 -1.35 Q 280.44 -2.12 279.73 -3.12 Q 279.01 -4.12 278.69 -5.13 Q 278.36 -6.15 278.36 -7.13 Z M 314.84 0 L 299.21 0 L 299.21 -20.41 L 314.84 -20.41 L 314.84 -15.83 L 304.13 -15.83 L 304.13 -12.33 L 313.07 -12.33 L 313.07 -8.07 L 304.13 -8.07 L 304.13 -4.56 L 314.84 -4.56 L 314.84 0 Z M 324.93 -10.36 L 324.93 -10.36 Q 324.93 -12.47 325.77 -14.37 Q 326.6 -16.27 328.05 -17.68 Q 329.5 -19.09 331.57 -19.92 Q 333.63 -20.76 335.98 -20.76 L 335.98 -20.76 Q 339.17 -20.76 341.67 -19.39 Q 344.17 -18.02 345.57 -15.66 L 345.57 -15.66 L 341.4 -13.23 Q 340.65 -14.66 339.26 -15.49 Q 337.87 -16.32 335.98 -16.32 L 335.98 -16.32 Q 333.33 -16.32 331.62 -14.61 Q 329.91 -12.91 329.91 -10.36 L 329.91 -10.36 Q 329.91 -8.75 330.67 -7.35 Q 331.44 -5.96 332.83 -5.11 Q 334.23 -4.26 335.98 -4.26 L 335.98 -4.26 Q 337.79 -4.26 339.18 -5.1 Q 340.56 -5.93 341.34 -7.35 L 341.34 -7.35 L 345.51 -4.95 Q 344.08 -2.55 341.59 -1.09 Q 339.1 0.37 335.98 0.37 L 335.98 0.37 Q 333.62 0.37 331.56 -0.47 Q 329.5 -1.3 328.05 -2.73 Q 326.6 -4.16 325.77 -6.14 Q 324.93 -8.12 324.93 -10.36 Z M 346.89 -10.2 L 346.89 -10.2 Q 346.89 -12.33 347.72 -14.28 Q 348.54 -16.23 349.95 -17.65 Q 351.36 -19.07 353.31 -19.91 Q 355.25 -20.76 357.41 -20.76 L 357.41 -20.76 Q 359.53 -20.76 361.49 -19.91 Q 363.44 -19.07 364.85 -17.65 Q 366.25 -16.23 367.1 -14.27 Q 367.94 -12.32 367.94 -10.2 L 367.94 -10.2 Q 367.94 -8.06 367.1 -6.1 Q 366.27 -4.15 364.86 -2.73 Q 363.44 -1.32 361.49 -0.48 Q 359.53 0.37 357.41 0.37 L 357.41 0.37 Q 354.54 0.37 352.11 -1.05 Q 349.69 -2.48 348.29 -4.9 Q 346.89 -7.32 346.89 -10.2 Z M 351.39 -10.2 L 351.39 -10.2 Q 351.39 -7.71 353.15 -5.95 Q 354.92 -4.2 357.41 -4.2 L 357.41 -4.2 Q 359.87 -4.2 361.63 -5.95 Q 363.38 -7.71 363.38 -10.2 L 363.38 -10.2 Q 363.38 -12.66 361.63 -14.41 Q 359.87 -16.17 357.41 -16.17 L 357.41 -16.17 Q 354.92 -16.17 353.15 -14.42 Q 351.39 -12.67 351.39 -10.2 Z M 375.82 0 L 370.87 0 L 370.87 -20.41 L 375.82 -20.41 L 386.15 -7.95 L 386.15 -20.41 L 391.1 -20.41 L 391.1 0 L 386.15 0 L 375.82 -12.48 L 375.82 0 Z M 394.44 -7.13 L 394.44 -7.13 L 399.33 -7.13 Q 399.35 -7 399.4 -6.78 Q 399.45 -6.56 399.73 -6.01 Q 400.02 -5.45 400.45 -5.02 Q 400.88 -4.6 401.76 -4.25 Q 402.64 -3.9 403.77 -3.9 L 403.77 -3.9 Q 405.29 -3.9 406.03 -4.43 Q 406.77 -4.97 406.77 -5.7 L 406.77 -5.7 Q 406.77 -6.08 406.56 -6.39 Q 406.35 -6.69 406.06 -6.9 Q 405.78 -7.1 405.23 -7.3 Q 404.69 -7.5 404.28 -7.61 Q 403.87 -7.72 403.17 -7.9 L 403.17 -7.9 Q 400.25 -8.58 398.88 -9.16 L 398.88 -9.16 Q 394.75 -10.87 394.75 -14.28 L 394.75 -14.28 Q 394.75 -16.11 395.85 -17.6 Q 396.96 -19.09 398.85 -19.92 Q 400.75 -20.76 403.05 -20.76 L 403.05 -20.76 Q 404.96 -20.76 406.55 -20.14 Q 408.13 -19.53 409.12 -18.54 Q 410.11 -17.55 410.65 -16.35 Q 411.18 -15.16 411.18 -13.95 L 411.18 -13.95 L 406.29 -13.95 Q 406.29 -14.81 405.37 -15.58 Q 404.46 -16.35 402.99 -16.35 L 402.99 -16.35 Q 401.78 -16.35 400.75 -15.84 Q 399.73 -15.34 399.73 -14.52 L 399.73 -14.52 Q 399.73 -13.83 400.61 -13.43 Q 401.5 -13.02 403.95 -12.39 L 403.95 -12.39 Q 406.73 -11.67 407.96 -11.12 L 407.96 -11.12 Q 411.3 -9.61 411.65 -6.72 L 411.65 -6.72 Q 411.69 -6.36 411.69 -5.98 L 411.69 -5.98 Q 411.69 -3.09 409.42 -1.36 Q 407.14 0.37 403.51 0.37 L 403.51 0.37 Q 401.66 0.37 400.11 -0.11 Q 398.57 -0.59 397.54 -1.35 Q 396.52 -2.12 395.8 -3.12 Q 395.08 -4.12 394.76 -5.13 Q 394.44 -6.15 394.44 -7.13 Z M 414.26 -10.47 L 414.26 -10.47 L 414.26 -20.41 L 419.18 -20.41 L 419.18 -10.47 Q 419.18 -7.5 420.42 -5.85 Q 421.67 -4.2 423.98 -4.2 L 423.98 -4.2 Q 426.28 -4.2 427.62 -5.87 Q 428.96 -7.54 428.96 -10.47 L 428.96 -10.47 L 428.96 -20.41 L 433.95 -20.41 L 433.95 -10.47 Q 433.95 -7.98 433.19 -5.93 Q 432.44 -3.88 431.1 -2.51 Q 429.77 -1.14 427.95 -0.39 Q 426.12 0.37 423.98 0.37 L 423.98 0.37 Q 419.59 0.37 416.92 -2.55 Q 414.26 -5.46 414.26 -10.47 Z M 453.11 0 L 437.48 0 L 437.48 -20.41 L 442.4 -20.41 L 442.4 -4.56 L 453.11 -4.56 L 453.11 0 Z M 458.42 -15.83 L 451.2 -15.83 L 451.2 -20.41 L 470.64 -20.41 L 470.64 -15.83 L 463.4 -15.83 L 463.4 0 L 458.42 0 L 458.42 -15.83 Z M 478.92 0 L 473.99 0 L 473.99 -20.41 L 478.92 -20.41 L 478.92 0 Z M 488.12 0 L 483.16 0 L 483.16 -20.41 L 488.12 -20.41 L 498.44 -7.95 L 498.44 -20.41 L 503.39 -20.41 L 503.39 0 L 498.44 0 L 488.12 -12.48 L 488.12 0 Z M 506.67 -10.2 L 506.67 -10.2 Q 506.67 -12.3 507.51 -14.24 Q 508.34 -16.17 509.79 -17.61 Q 511.25 -19.04 513.33 -19.9 Q 515.41 -20.76 517.75 -20.76 L 517.75 -20.76 Q 520.62 -20.76 522.96 -19.56 Q 525.31 -18.37 526.89 -16.29 L 526.89 -16.29 L 522.64 -14.14 Q 521.04 -16.14 517.69 -16.14 L 517.69 -16.14 Q 515.02 -16.14 513.33 -14.47 Q 511.63 -12.8 511.63 -10.25 L 511.63 -10.25 Q 511.63 -7.78 513.37 -6.01 Q 515.11 -4.23 517.75 -4.23 L 517.75 -4.23 Q 520.94 -4.23 522.76 -5.95 L 522.76 -5.95 L 522.76 -7.92 L 516.55 -7.92 L 516.55 -11.7 L 527.11 -11.7 L 527.11 -4.15 Q 527.04 -3.98 526.67 -3.56 Q 526.3 -3.13 525.48 -2.44 Q 524.65 -1.74 523.62 -1.14 Q 522.58 -0.53 521.02 -0.08 Q 519.46 0.37 517.78 0.37 L 517.78 0.37 Q 515.32 0.37 513.21 -0.51 Q 511.1 -1.39 509.69 -2.86 Q 508.27 -4.32 507.47 -6.23 Q 506.67 -8.13 506.67 -10.2 Z M 553.56 0 L 537.93 0 L 537.93 -20.41 L 542.86 -20.41 L 542.86 -4.56 L 553.56 -4.56 L 553.56 0 Z M 572.7 0 L 557.07 0 L 557.07 -20.41 L 561.99 -20.41 L 561.99 -4.56 L 572.7 -4.56 L 572.7 0 Z M 574.15 -10.36 L 574.15 -10.36 Q 574.15 -12.47 574.98 -14.37 Q 575.82 -16.27 577.27 -17.68 Q 578.72 -19.09 580.78 -19.92 Q 582.85 -20.76 585.19 -20.76 L 585.19 -20.76 Q 588.38 -20.76 590.88 -19.39 Q 593.38 -18.02 594.79 -15.66 L 594.79 -15.66 L 590.61 -13.23 Q 589.86 -14.66 588.47 -15.49 Q 587.08 -16.32 585.19 -16.32 L 585.19 -16.32 Q 582.54 -16.32 580.83 -14.61 Q 579.13 -12.91 579.13 -10.36 L 579.13 -10.36 Q 579.13 -8.75 579.89 -7.35 Q 580.65 -5.96 582.05 -5.11 Q 583.45 -4.26 585.19 -4.26 L 585.19 -4.26 Q 587.01 -4.26 588.39 -5.1 Q 589.78 -5.93 590.55 -7.35 L 590.55 -7.35 L 594.73 -4.95 Q 593.29 -2.55 590.8 -1.09 Q 588.31 0.37 585.19 0.37 L 585.19 0.37 Q 582.83 0.37 580.77 -0.47 Q 578.72 -1.3 577.27 -2.73 Q 575.82 -4.16 574.98 -6.14 Q 574.15 -8.12 574.15 -10.36 Z" stroke-linecap="round" />
</g>
<g transform="matrix(1.9211538461538462 0 0 1.9211538461538462 640.0979788461539 837.685707839828)" id="tagline-ad397d75-5a10-4878-a5ff-509e31ea05ff-logo-path"  >
<path style="stroke: rgb(255,255,255); stroke-width: 0; stroke-dasharray: none; stroke-linecap: butt; stroke-dashoffset: 0; stroke-linejoin: miter; stroke-miterlimit: 4; fill: rgb(24,43,131); fill-rule: nonzero; opacity: 1;"  paint-order="stroke"  transform=" translate(-118.44, 13.09)" d="M 16.08 -26.52 L 16.08 -26.52 Q 19.07 -26.52 21.66 -25.47 Q 24.24 -24.41 26.15 -22.58 Q 28.05 -20.74 29.14 -18.26 Q 30.23 -15.78 30.23 -12.89 L 30.23 -12.89 Q 30.23 -10.13 29.12 -7.72 Q 28.02 -5.3 26.11 -3.52 Q 24.21 -1.73 21.62 -0.7 Q 19.04 0.34 16.08 0.34 L 16.08 0.34 Q 13.12 0.34 10.54 -0.7 Q 7.96 -1.73 6.05 -3.52 Q 4.15 -5.3 3.04 -7.72 Q 1.94 -10.13 1.94 -12.89 L 1.94 -12.89 Q 1.94 -15.78 3.03 -18.26 Q 4.11 -20.74 6.02 -22.58 Q 7.92 -24.41 10.51 -25.47 Q 13.09 -26.52 16.08 -26.52 Z M 16.08 -1.53 L 16.08 -1.53 Q 18.33 -1.53 20.11 -2.31 Q 21.9 -3.09 23.17 -4.56 Q 24.45 -6.02 25.13 -8.11 Q 25.81 -10.2 25.81 -12.78 L 25.81 -12.78 Q 25.81 -15.5 25.13 -17.7 Q 24.45 -19.89 23.19 -21.44 Q 21.93 -22.98 20.13 -23.82 Q 18.33 -24.65 16.08 -24.65 L 16.08 -24.65 Q 13.84 -24.65 12.04 -23.82 Q 10.23 -22.98 8.98 -21.44 Q 7.72 -19.89 7.04 -17.7 Q 6.36 -15.5 6.36 -12.78 L 6.36 -12.78 Q 6.36 -10.2 7.04 -8.11 Q 7.72 -6.02 8.98 -4.56 Q 10.23 -3.09 12.04 -2.31 Q 13.84 -1.53 16.08 -1.53 Z M 54.09 -19.62 L 54.09 -19.62 Q 54.09 -17.82 53.52 -16.39 Q 52.94 -14.96 51.7 -13.97 Q 50.46 -12.99 48.47 -12.44 Q 46.48 -11.9 43.62 -11.9 L 43.62 -11.9 L 40.56 -11.9 L 40.56 -5.34 Q 40.56 -4.08 40.72 -3.28 Q 40.87 -2.48 41.36 -2.04 Q 41.85 -1.6 42.79 -1.45 Q 43.72 -1.29 45.25 -1.29 L 45.25 -1.29 L 45.25 0 L 33.25 0 L 33.25 -1.29 Q 34.44 -1.33 35.17 -1.5 Q 35.9 -1.67 36.31 -2.07 Q 36.72 -2.48 36.86 -3.23 Q 36.99 -3.98 36.99 -5.17 L 36.99 -5.17 L 36.99 -21.01 Q 36.99 -22.2 36.87 -22.93 Q 36.75 -23.66 36.4 -24.09 Q 36.04 -24.51 35.36 -24.67 Q 34.68 -24.82 33.59 -24.89 L 33.59 -24.89 L 33.59 -26.18 L 44.27 -26.18 Q 48.96 -26.18 51.53 -24.45 Q 54.09 -22.71 54.09 -19.62 Z M 40.56 -24 L 40.56 -13.6 L 42.98 -13.6 Q 46.38 -13.6 48.03 -14.91 Q 49.67 -16.22 49.67 -19.21 L 49.67 -19.21 Q 49.67 -22.1 48.37 -23.34 Q 47.06 -24.58 44.27 -24.58 L 44.27 -24.58 L 41.14 -24.58 Q 40.56 -24.58 40.56 -24 L 40.56 -24 Z M 63.92 -24.14 L 63.92 -14.38 Q 65.76 -14.38 67 -14.6 Q 68.24 -14.82 68.97 -15.3 Q 69.7 -15.78 70.02 -16.52 Q 70.35 -17.27 70.35 -18.29 L 70.35 -18.29 L 71.54 -18.29 L 71.54 -9.01 L 70.35 -9.01 Q 70.35 -10.03 70.06 -10.78 Q 69.77 -11.53 69.04 -12.02 Q 68.31 -12.51 67.06 -12.77 Q 65.82 -13.02 63.92 -13.02 L 63.92 -13.02 L 63.92 -5.34 Q 63.92 -4.22 64.19 -3.49 Q 64.46 -2.75 65.13 -2.3 Q 65.79 -1.84 66.88 -1.65 Q 67.97 -1.46 69.56 -1.46 L 69.56 -1.46 Q 71.37 -1.46 72.62 -1.72 Q 73.88 -1.97 74.73 -2.58 Q 75.58 -3.2 76.09 -4.2 Q 76.6 -5.2 76.94 -6.7 L 76.94 -6.7 L 78.23 -6.7 L 77.72 0 L 56.61 0 L 56.61 -1.29 Q 57.8 -1.33 58.53 -1.5 Q 59.26 -1.67 59.67 -2.07 Q 60.08 -2.48 60.21 -3.23 Q 60.35 -3.98 60.35 -5.17 L 60.35 -5.17 L 60.35 -21.01 Q 60.35 -22.2 60.23 -22.93 Q 60.11 -23.66 59.75 -24.09 Q 59.4 -24.51 58.72 -24.67 Q 58.04 -24.82 56.95 -24.89 L 56.95 -24.89 L 56.95 -26.18 L 76.6 -26.18 L 76.91 -20.2 L 75.72 -20.2 Q 75.51 -21.56 75.06 -22.42 Q 74.6 -23.29 73.8 -23.8 Q 73 -24.31 71.77 -24.51 Q 70.55 -24.72 68.82 -24.72 L 68.82 -24.72 L 64.5 -24.72 Q 63.92 -24.72 63.92 -24.14 L 63.92 -24.14 Z M 105.4 0.34 L 103.36 0.34 L 87.21 -20.94 L 87.07 -20.94 L 87.07 -6.43 Q 87.07 -4.73 87.19 -3.74 Q 87.31 -2.75 87.67 -2.21 Q 88.03 -1.67 88.69 -1.5 Q 89.35 -1.33 90.44 -1.29 L 90.44 -1.29 L 90.44 0 L 81.29 0 L 81.29 -1.29 Q 82.48 -1.33 83.21 -1.51 Q 83.95 -1.7 84.35 -2.21 Q 84.76 -2.72 84.9 -3.66 Q 85.03 -4.59 85.03 -6.19 L 85.03 -6.19 L 85.03 -19.99 Q 85.03 -21.42 84.91 -22.36 Q 84.8 -23.29 84.44 -23.83 Q 84.08 -24.38 83.4 -24.6 Q 82.72 -24.82 81.63 -24.89 L 81.63 -24.89 L 81.63 -26.18 L 88.37 -26.18 L 103.22 -6.36 L 103.36 -6.36 L 103.36 -19.75 Q 103.36 -21.42 103.24 -22.42 Q 103.12 -23.43 102.77 -23.97 Q 102.41 -24.51 101.75 -24.68 Q 101.08 -24.85 99.99 -24.89 L 99.99 -24.89 L 99.99 -26.18 L 109.14 -26.18 L 109.14 -24.89 Q 107.95 -24.85 107.22 -24.67 Q 106.49 -24.48 106.08 -23.97 Q 105.67 -23.46 105.54 -22.51 Q 105.4 -21.56 105.4 -19.99 L 105.4 -19.99 L 105.4 0.34 Z M 129.03 -19.75 L 129.03 -6.43 Q 129.03 -4.73 129.17 -3.74 Q 129.3 -2.75 129.69 -2.21 Q 130.08 -1.67 130.81 -1.5 Q 131.55 -1.33 132.74 -1.29 L 132.74 -1.29 L 132.74 0 L 121.72 0 L 121.72 -1.29 Q 122.91 -1.33 123.64 -1.51 Q 124.37 -1.7 124.78 -2.21 Q 125.19 -2.72 125.32 -3.66 Q 125.46 -4.59 125.46 -6.19 L 125.46 -6.19 L 125.46 -19.99 Q 125.46 -21.42 125.34 -22.36 Q 125.22 -23.29 124.86 -23.83 Q 124.51 -24.38 123.83 -24.6 Q 123.15 -24.82 122.06 -24.89 L 122.06 -24.89 L 122.06 -26.18 L 132.4 -26.18 L 132.4 -24.89 Q 131.31 -24.85 130.65 -24.62 Q 129.98 -24.38 129.63 -23.82 Q 129.27 -23.26 129.15 -22.27 Q 129.03 -21.28 129.03 -19.75 L 129.03 -19.75 Z M 148.89 0 L 135.59 0 L 135.59 -1.29 Q 136.88 -1.33 137.68 -1.48 Q 138.48 -1.63 138.92 -2.06 Q 139.37 -2.48 139.52 -3.21 Q 139.67 -3.94 139.67 -5.17 L 139.67 -5.17 L 139.67 -21.01 Q 139.67 -22.2 139.55 -22.93 Q 139.43 -23.66 139.08 -24.09 Q 138.72 -24.51 138.04 -24.67 Q 137.36 -24.82 136.27 -24.89 L 136.27 -24.89 L 136.27 -26.18 L 148.21 -26.18 Q 151.27 -26.18 153.87 -25.16 Q 156.47 -24.14 158.36 -22.34 Q 160.24 -20.54 161.3 -18.05 Q 162.35 -15.57 162.35 -12.65 L 162.35 -12.65 Q 162.35 -9.86 161.36 -7.53 Q 160.38 -5.2 158.59 -3.54 Q 156.81 -1.87 154.33 -0.94 Q 151.84 0 148.89 0 L 148.89 0 Z M 148.14 -24.51 L 143.82 -24.51 Q 143.24 -24.51 143.24 -23.94 L 143.24 -23.94 L 143.24 -5.54 Q 143.24 -1.67 148.31 -1.67 L 148.31 -1.67 Q 152.97 -1.67 155.45 -4.44 Q 157.93 -7.21 157.93 -12.58 L 157.93 -12.58 Q 157.93 -15.4 157.25 -17.61 Q 156.57 -19.82 155.3 -21.35 Q 154.02 -22.88 152.22 -23.7 Q 150.42 -24.51 148.14 -24.51 L 148.14 -24.51 Z M 172.75 -24.14 L 172.75 -14.38 Q 174.59 -14.38 175.83 -14.6 Q 177.07 -14.82 177.8 -15.3 Q 178.53 -15.78 178.86 -16.52 Q 179.18 -17.27 179.18 -18.29 L 179.18 -18.29 L 180.37 -18.29 L 180.37 -9.01 L 179.18 -9.01 Q 179.18 -10.03 178.89 -10.78 Q 178.6 -11.53 177.87 -12.02 Q 177.14 -12.51 175.9 -12.77 Q 174.66 -13.02 172.75 -13.02 L 172.75 -13.02 L 172.75 -5.34 Q 172.75 -4.22 173.03 -3.49 Q 173.3 -2.75 173.96 -2.3 Q 174.62 -1.84 175.71 -1.65 Q 176.8 -1.46 178.4 -1.46 L 178.4 -1.46 Q 180.2 -1.46 181.46 -1.72 Q 182.72 -1.97 183.57 -2.58 Q 184.42 -3.2 184.93 -4.2 Q 185.44 -5.2 185.78 -6.7 L 185.78 -6.7 L 187.07 -6.7 L 186.56 0 L 165.44 0 L 165.44 -1.29 Q 166.63 -1.33 167.37 -1.5 Q 168.1 -1.67 168.5 -2.07 Q 168.91 -2.48 169.05 -3.23 Q 169.18 -3.98 169.18 -5.17 L 169.18 -5.17 L 169.18 -21.01 Q 169.18 -22.2 169.07 -22.93 Q 168.95 -23.66 168.59 -24.09 Q 168.23 -24.51 167.55 -24.67 Q 166.87 -24.82 165.78 -24.89 L 165.78 -24.89 L 165.78 -26.18 L 185.44 -26.18 L 185.74 -20.2 L 184.55 -20.2 Q 184.35 -21.56 183.89 -22.42 Q 183.43 -23.29 182.63 -23.8 Q 181.83 -24.31 180.61 -24.51 Q 179.38 -24.72 177.65 -24.72 L 177.65 -24.72 L 173.33 -24.72 Q 172.75 -24.72 172.75 -24.14 L 172.75 -24.14 Z M 206.58 -5.81 L 205.19 -9.49 L 196.11 -9.49 Q 195.53 -8.09 195.13 -7.02 Q 194.72 -5.95 194.46 -5.17 Q 194.21 -4.39 194.11 -3.84 Q 194 -3.3 194 -2.96 L 194 -2.96 Q 194 -2.01 194.62 -1.65 Q 195.23 -1.29 196.66 -1.29 L 196.66 -1.29 L 196.66 0 L 188.39 0 L 188.39 -1.29 Q 189.18 -1.39 189.74 -1.56 Q 190.3 -1.73 190.72 -2.04 Q 191.15 -2.35 191.47 -2.84 Q 191.79 -3.33 192.1 -4.05 L 192.1 -4.05 L 200.94 -26.18 L 202.4 -26.18 L 210.12 -7 Q 210.9 -5.1 211.48 -3.96 Q 212.06 -2.82 212.6 -2.24 Q 213.15 -1.67 213.78 -1.5 Q 214.4 -1.33 215.29 -1.33 L 215.29 -1.33 L 215.29 0 L 204.2 0 L 204.2 -1.33 Q 206.01 -1.33 206.69 -1.67 Q 207.37 -2.01 207.37 -2.79 L 207.37 -2.79 Q 207.37 -3.13 207.33 -3.42 Q 207.3 -3.71 207.21 -4.05 Q 207.13 -4.39 206.98 -4.81 Q 206.82 -5.24 206.58 -5.81 L 206.58 -5.81 Z M 200.77 -21.22 L 196.79 -11.19 L 204.54 -11.19 L 200.77 -21.22 Z M 217.33 -0.37 L 216.82 -7.99 L 218.08 -7.99 Q 218.31 -6.46 218.98 -5.24 Q 219.64 -4.01 220.64 -3.16 Q 221.65 -2.31 222.96 -1.85 Q 224.26 -1.39 225.79 -1.39 L 225.79 -1.39 Q 228.31 -1.39 229.77 -2.58 Q 231.23 -3.77 231.23 -5.81 L 231.23 -5.81 Q 231.23 -6.66 230.94 -7.38 Q 230.66 -8.09 229.98 -8.76 Q 229.3 -9.42 228.16 -10.06 Q 227.02 -10.71 225.28 -11.46 L 225.28 -11.46 Q 223.18 -12.38 221.75 -13.23 Q 220.32 -14.08 219.47 -14.99 Q 218.62 -15.91 218.26 -16.95 Q 217.91 -17.99 217.91 -19.31 L 217.91 -19.31 Q 217.91 -20.88 218.47 -22.2 Q 219.03 -23.53 220.05 -24.5 Q 221.07 -25.47 222.46 -25.99 Q 223.86 -26.52 225.52 -26.52 L 225.52 -26.52 Q 227.02 -26.52 228.31 -26.04 Q 229.6 -25.57 230.93 -24.51 L 230.93 -24.51 L 231.81 -26.04 L 232.59 -26.04 L 232.97 -19.28 L 231.71 -19.28 Q 230.89 -22.07 229.35 -23.43 Q 227.8 -24.79 225.62 -24.79 L 225.62 -24.79 Q 223.55 -24.79 222.33 -23.77 Q 221.1 -22.75 221.1 -21.01 L 221.1 -21.01 Q 221.1 -20.2 221.37 -19.53 Q 221.65 -18.87 222.26 -18.28 Q 222.87 -17.68 223.86 -17.09 Q 224.84 -16.49 226.3 -15.84 L 226.3 -15.84 Q 228.82 -14.72 230.49 -13.75 Q 232.15 -12.78 233.14 -11.82 Q 234.12 -10.85 234.53 -9.78 Q 234.94 -8.7 234.94 -7.38 L 234.94 -7.38 Q 234.94 -5.68 234.26 -4.25 Q 233.58 -2.82 232.36 -1.8 Q 231.13 -0.78 229.43 -0.22 Q 227.73 0.34 225.69 0.34 L 225.69 0.34 Q 223.75 0.34 222.21 -0.2 Q 220.66 -0.75 219.06 -2.04 L 219.06 -2.04 L 218.11 -0.37 L 217.33 -0.37 Z" stroke-linecap="round" />
</g>
<g transform="matrix(1.9211538461538462 0 0 1.9211538461538462 640 928.8040872847648)" id="shape-161e3720-cfc4-428a-81ae-776cccb25179-logo"  >
<g style=""  paint-order="stroke"   >
		<g transform="matrix(1 0 0 1 0 0)" id="decoration-5"  >
<linearGradient id="SVGID_13_263077" gradientUnits="userSpaceOnUse" gradientTransform="matrix(1 0 0 1 0.060000000000002274 0.0115373275387185)"  x1="0" y1="0" x2="0" y2="36">
<stop offset="0%" style="stop-color:rgb(91,36,122);stop-opacity: 1"/>
<stop offset="100%" style="stop-color:rgb(27,206,223);stop-opacity: 1"/>
</linearGradient>
<path style="stroke: none; stroke-width: 1; stroke-dasharray: none; stroke-linecap: butt; stroke-dashoffset: 0; stroke-linejoin: miter; stroke-miterlimit: 4; fill: url(#SVGID_13_263077); fill-rule: nonzero; opacity: 1;"  paint-order="stroke"  transform=" translate(-100, -18.257464140521847)" d="M 199.94 21.26 C 153.82 -3.349999999999998 102.66 25.1 102.66 25.1 C 22.52 60.87 0.06 1.06 0.06 1.06 C 6.279999999999999 13.06 33.06 44.940000000000005 92.35000000000001 12.47 C 151.64000000000001 -20.000000000000004 199.94 21.26 199.94 21.26 Z M 87.2 9 C 87.2 9 33.81 26.48 10.89 4.7 C 10.89 4.7 33.89 38.77 87.2 9.04 M 118.5 28 C 118.5 28 166.32 12.49 194.93 25.67 C 194.93 25.67 163.31 2.4400000000000013 118.5 28" stroke-linecap="round" />
</g>
</g>
</g>
</svg>